<?xml version="1.0" encoding="utf-8"?><!-- Uploaded to: SVG Repo, www.svgrepo.com, Generator: SVG Repo Mixer Tools -->
<svg width="800px" height="800px" viewBox="0 0 512 512" xmlns="http://www.w3.org/2000/svg">
  <path fill="var(--ci-primary-color, #000000)" d="M96,472a23.82,23.82,0,0,0,23.579,24H392.421A23.82,23.82,0,0,0,416,472V152H96Zm32-288H384V464H128Z" class="ci-primary"/>
  <rect width="32" height="200" x="168" y="216" fill="var(--ci-primary-color, #000000)" class="ci-primary"/>
  <rect width="32" height="200" x="240" y="216" fill="var(--ci-primary-color, #000000)" class="ci-primary"/>
  <rect width="32" height="200" x="312" y="216" fill="var(--ci-primary-color, #000000)" class="ci-primary"/>
  <path fill="var(--ci-primary-color, #000000)" d="M328,88V40c0-13.458-9.488-24-21.6-24H205.6C193.488,16,184,26.542,184,40V88H64v32H448V88ZM216,48h80V88H216Z" class="ci-primary"/>
</svg>